<svg width="21" height="18" viewBox="0 0 21 18" fill="none" xmlns="http://www.w3.org/2000/svg">
<path d="M1.99013 0H19.9882C20.2534 0 20.5077 0.105357 20.6952 0.292893C20.8828 0.48043 20.9881 0.734784 20.9881 1V17C20.9881 17.2652 20.8828 17.5196 20.6952 17.7071C20.5077 17.8946 20.2534 18 19.9882 18H1.99013C1.72494 18 1.47061 17.8946 1.2831 17.7071C1.09558 17.5196 0.990234 17.2652 0.990234 17V1C0.990234 0.734784 1.09558 0.48043 1.2831 0.292893C1.47061 0.105357 1.72494 0 1.99013 0ZM18.9883 4.238L11.0612 11.338L2.99002 4.216V16H18.9883V4.238ZM3.50097 2L11.0502 8.662L18.4904 2H3.50097Z" fill="#121212"/>
</svg>
