<svg width="19" height="22" viewBox="0 0 19 22" fill="none" xmlns="http://www.w3.org/2000/svg">
<path d="M9.95022 18.8999L14.8997 13.9499C15.8785 12.9709 16.545 11.7236 16.815 10.3658C17.085 9.00795 16.9464 7.60052 16.4166 6.32148C15.8868 5.04244 14.9897 3.94923 13.8387 3.18009C12.6877 2.41095 11.3345 2.00043 9.95022 2.00043C8.56593 2.00043 7.21272 2.41095 6.06171 3.18009C4.91071 3.94923 4.0136 5.04244 3.48382 6.32148C2.95404 7.60052 2.81539 9.00795 3.0854 10.3658C3.35541 11.7236 4.02195 12.9709 5.00074 13.9499L9.95022 18.8999ZM9.95022 21.7279L3.5869 15.3639C2.32837 14.1052 1.4713 12.5016 1.12408 10.7558C0.776861 9.00995 0.955078 7.20035 1.6362 5.55582C2.31732 3.91129 3.47075 2.50569 4.95063 1.51677C6.43051 0.527838 8.17038 0 9.95022 0C11.7301 0 13.4699 0.527838 14.9498 1.51677C16.4297 2.50569 17.5831 3.91129 18.2642 5.55582C18.9454 7.20035 19.1236 9.00995 18.7764 10.7558C18.4291 12.5016 17.5721 14.1052 16.3135 15.3639L9.95022 21.7279ZM9.95022 10.9999C10.4806 10.9999 10.9892 10.7892 11.3643 10.4141C11.7393 10.0391 11.95 9.53035 11.95 8.99992C11.95 8.46949 11.7393 7.96078 11.3643 7.58571C10.9892 7.21064 10.4806 6.99992 9.95022 6.99992C9.41984 6.99992 8.91119 7.21064 8.53615 7.58571C8.16112 7.96078 7.95043 8.46949 7.95043 8.99992C7.95043 9.53035 8.16112 10.0391 8.53615 10.4141C8.91119 10.7892 9.41984 10.9999 9.95022 10.9999ZM9.95022 12.9999C8.88946 12.9999 7.87216 12.5785 7.12209 11.8283C6.37203 11.0782 5.95064 10.0608 5.95064 8.99992C5.95064 7.93906 6.37203 6.92164 7.12209 6.17149C7.87216 5.42135 8.88946 4.99992 9.95022 4.99992C11.011 4.99992 12.0283 5.42135 12.7783 6.17149C13.5284 6.92164 13.9498 7.93906 13.9498 8.99992C13.9498 10.0608 13.5284 11.0782 12.7783 11.8283C12.0283 12.5785 11.011 12.9999 9.95022 12.9999Z" fill="#121212"/>
</svg>
