<svg width="21" height="20" viewBox="0 0 21 20" fill="none" xmlns="http://www.w3.org/2000/svg">
<path d="M5.4057 15.999L0.951172 19.499V0.999023C0.951172 0.733807 1.05652 0.479453 1.24403 0.291917C1.43155 0.10438 1.68588 -0.000976562 1.95107 -0.000976562H19.9491C20.2143 -0.000976562 20.4687 0.10438 20.6562 0.291917C20.8437 0.479453 20.949 0.733807 20.949 0.999023V14.999C20.949 15.2642 20.8437 15.5186 20.6562 15.7061C20.4687 15.8937 20.2143 15.999 19.9491 15.999H5.4057ZM4.71377 13.999H18.9493V1.99902H2.95096V15.384L4.71377 13.999ZM9.95021 6.99902H11.95V8.99902H9.95021V6.99902ZM5.95064 6.99902H7.95043V8.99902H5.95064V6.99902ZM13.9498 6.99902H15.9496V8.99902H13.9498V6.99902Z" fill="#121212"/>
</svg>
