<svg width="19" height="18" viewBox="0 0 19 18" fill="none" xmlns="http://www.w3.org/2000/svg">
<path d="M7.35556 7.682C8.29379 9.33048 9.65883 10.6957 11.3071 11.634L12.191 10.396C12.3332 10.1969 12.5434 10.0569 12.7818 10.0023C13.0202 9.94779 13.2704 9.98254 13.4849 10.1C14.8991 10.8729 16.4608 11.3378 18.0674 11.464C18.3182 11.4839 18.5522 11.5975 18.7229 11.7823C18.8936 11.9671 18.9883 12.2094 18.9883 12.461V16.923C18.9884 17.1706 18.8966 17.4094 18.7307 17.5932C18.5648 17.777 18.3367 17.8927 18.0904 17.918C17.5605 17.973 17.0265 18 16.4886 18C7.92949 18 0.990234 11.06 0.990234 2.5C0.990234 1.962 1.01723 1.428 1.07223 0.898C1.09748 0.651697 1.21319 0.423521 1.39698 0.257634C1.58077 0.0917472 1.81955 -5.33578e-05 2.06712 2.32673e-08H6.52864C6.78018 -3.15185e-05 7.02249 0.0947515 7.20725 0.265451C7.39202 0.43615 7.50567 0.670224 7.52554 0.921C7.65175 2.52779 8.11655 4.08968 8.88939 5.504C9.00685 5.71856 9.04159 5.96874 8.98705 6.2072C8.93251 6.44565 8.79247 6.65584 8.59342 6.798L7.35556 7.682ZM4.83382 7.025L6.73362 5.668C6.19446 4.50409 5.82507 3.26884 5.63674 2H3.00002C2.99402 2.166 2.99102 2.333 2.99102 2.5C2.99002 9.956 9.03338 16 16.4886 16C16.6556 16 16.8225 15.997 16.9885 15.99V13.353C15.7198 13.1646 14.4847 12.7952 13.3209 12.256L11.9641 14.156C11.4178 13.9437 10.8872 13.6931 10.3762 13.406L10.3182 13.373C8.35703 12.2567 6.7329 10.6324 5.61674 8.671L5.58375 8.613C5.29668 8.10199 5.04609 7.57134 4.83382 7.025Z" fill="#121212"/>
</svg>
