<svg width="17" height="21" viewBox="0 0 17 21" fill="none" xmlns="http://www.w3.org/2000/svg">
<path d="M16.9885 21H14.9887V19C14.9887 18.2044 14.6727 17.4413 14.1102 16.8787C13.5476 16.3161 12.7846 16 11.9891 16H5.9897C5.19414 16 4.43116 16.3161 3.86861 16.8787C3.30606 17.4413 2.99002 18.2044 2.99002 19V21H0.990234V19C0.990234 17.6739 1.51696 16.4021 2.45454 15.4645C3.39213 14.5268 4.66376 14 5.9897 14H11.9891C13.315 14 14.5866 14.5268 15.5242 15.4645C16.4618 16.4021 16.9885 17.6739 16.9885 19V21ZM8.98938 12C8.20153 12 7.4214 11.8448 6.69353 11.5433C5.96565 11.2417 5.30429 10.7998 4.74719 10.2426C4.1901 9.68549 3.74819 9.02405 3.4467 8.2961C3.1452 7.56815 2.99002 6.78793 2.99002 6C2.99002 5.21207 3.1452 4.43185 3.4467 3.7039C3.74819 2.97595 4.1901 2.31451 4.74719 1.75736C5.30429 1.20021 5.96565 0.758251 6.69353 0.456723C7.4214 0.155195 8.20153 -1.17411e-08 8.98938 0C10.5805 2.37122e-08 12.1065 0.632141 13.2316 1.75736C14.3567 2.88258 14.9887 4.4087 14.9887 6C14.9887 7.5913 14.3567 9.11742 13.2316 10.2426C12.1065 11.3679 10.5805 12 8.98938 12ZM8.98938 10C10.0501 10 11.0674 9.57857 11.8175 8.82843C12.5676 8.07828 12.989 7.06087 12.989 6C12.989 4.93913 12.5676 3.92172 11.8175 3.17157C11.0674 2.42143 10.0501 2 8.98938 2C7.92863 2 6.91132 2.42143 6.16126 3.17157C5.41119 3.92172 4.98981 4.93913 4.98981 6C4.98981 7.06087 5.41119 8.07828 6.16126 8.82843C6.91132 9.57857 7.92863 10 8.98938 10Z" fill="#121212"/>
</svg>
